<svg xmlns="http://www.w3.org/2000/svg" viewBox="0 0 512 512">
  <rect width="512" height="512" fill="#0f172a"/>
  <path d="M256 96c-88.4 0-160 71.6-160 160 0 88.4 71.6 160 160 160s160-71.6 160-160c0-88.4-71.6-160-160-160zm0 288c-70.7 0-128-57.3-128-128 0-70.7 57.3-128 128-128s128 57.3 128 128c0 70.7-57.3 128-128 128z" fill="#38bdf8"/>
  <path d="M256 160c-53 0-96 43-96 96s43 96 96 96 96-43 96-96-43-96-96-96zm0 160c-35.3 0-64-28.7-64-64s28.7-64 64-64 64 28.7 64 64-28.7 64-64 64z" fill="#0ea5e9"/>
  <path d="M256 96v320M96 256h320" stroke="#0ea5e9" stroke-width="32" stroke-linecap="round"/>
</svg>
